<?xml version="1.0" encoding="UTF-8"?><svg id="a" xmlns="http://www.w3.org/2000/svg" viewBox="0 0 393.79 57.68"><path d="m34.63,32.77c1.53,1.35,2.75,2.84,3.65,4.46.9,1.62,1.44,3.28,1.62,4.97.18,1.69.01,3.33-.51,4.93-.52,1.6-1.41,3.05-2.67,4.36-1.08,1.08-2.58,2.01-4.49,2.77-1.92.77-4.04,1.34-6.39,1.72-2.34.38-4.79.56-7.33.54-2.55-.02-4.98-.26-7.3-.71-2.32-.45-4.4-1.13-6.25-2.03-1.85-.9-3.24-2.05-4.19-3.45-.68-.99-.91-2.11-.71-3.34.2-1.24.63-2.49,1.28-3.75.65-1.26,1.39-2.49,2.2-3.68.81-1.19,1.46-2.26,1.96-3.21h1.01c.36,3.51.95,6.48,1.76,8.89.81,2.41,1.73,4.36,2.77,5.85,1.04,1.49,2.15,2.57,3.34,3.24,1.19.68,2.35,1.01,3.48,1.01,1.31,0,2.62-.38,3.95-1.15,1.33-.77,2.39-1.79,3.18-3.07.79-1.28,1.17-2.75,1.15-4.39-.02-1.64-.71-3.32-2.06-5.03-.41-.45-.98-.92-1.72-1.42-.74-.5-1.57-.99-2.47-1.49-.9-.49-1.81-.99-2.74-1.49-.92-.5-1.77-.99-2.53-1.49-1.58-1.08-3.2-2.11-4.87-3.07-1.67-.97-3.19-1.99-4.56-3.07-1.37-1.08-2.5-2.3-3.38-3.65-.88-1.35-1.32-2.95-1.32-4.8,0-2.25.77-4.28,2.3-6.08,1.53-1.8,3.49-3.29,5.88-4.46,2.39-1.17,5.04-2.03,7.97-2.57,2.93-.54,5.8-.7,8.62-.47,2.81.23,5.41.87,7.77,1.93,2.37,1.06,4.18,2.56,5.44,4.49.68.99.91,2.11.71,3.34-.2,1.24-.63,2.49-1.28,3.75-.65,1.26-1.39,2.49-2.2,3.68-.81,1.19-1.44,2.26-1.89,3.21h-1.01c-.32-3.06-.86-5.79-1.62-8.18-.77-2.39-1.68-4.39-2.74-6.01-1.06-1.62-2.24-2.86-3.55-3.72-1.31-.86-2.66-1.33-4.05-1.42-.81-.04-1.7.16-2.67.61-.97.45-1.87,1.05-2.7,1.79-.83.74-1.52,1.61-2.06,2.6-.54.99-.81,1.98-.81,2.97,0,1.13.34,2.14,1.01,3.04.68.9,1.59,1.73,2.74,2.5,1.15.77,2.48,1.52,3.99,2.26,1.51.74,3.07,1.52,4.7,2.33,1.62.81,3.27,1.7,4.93,2.67,1.67.97,3.22,2.06,4.66,3.28Z" style="stroke-width:0px;"/><path d="m81.26,55.48v.95h-14.66v-6.08c-1.76,2.3-3.64,3.93-5.64,4.9-2.01.97-4,1.41-5.98,1.32-2.66-.14-4.6-.96-5.81-2.47-1.22-1.51-2.05-3.74-2.5-6.69-.45-2.95-.63-6.62-.54-11.01.09-4.39.14-9.52.14-15.37l-3.11-2.09v-.95h5.8c1.48,0,2.87-.01,4.17-.03,1.3-.02,2.08-.03,2.35-.03,1.52,0,2.28.77,2.28,2.3v28.79c.18,2.7.73,4.23,1.63,4.6.5.23,1.09.18,1.77-.14.68-.31,1.37-.75,2.08-1.32.7-.56,1.36-1.2,1.98-1.93.61-.72,1.08-1.4,1.4-2.03v-27.16l-3.11-2.09v-.95h5.8c1.48,0,2.87-.01,4.17-.03,1.3-.02,2.08-.03,2.35-.03.67,0,1.22.19,1.65.57.43.38.62.96.57,1.72v16.35c0,2.03.01,4.02.03,5.98.02,1.96.03,3.73.03,5.3v5.47l3.18,2.16Z" style="stroke-width:0px;"/><path d="m97.68,23.38c.81-1.26,1.93-2.35,3.34-3.28,1.42-.92,2.94-1.53,4.56-1.82,1.62-.29,3.29-.24,5,.17,1.71.41,3.24,1.28,4.6,2.64s2.47,3.25,3.34,5.71c.88,2.46,1.32,5.55,1.32,9.29,0,3.42-.37,6.41-1.11,8.95-.74,2.55-1.73,4.69-2.97,6.42-1.24,1.73-2.67,3.09-4.29,4.05-1.62.97-3.3,1.61-5.03,1.93-1.73.31-3.46.33-5.17.03-1.71-.29-3.31-.87-4.8-1.72-2.21-.77-4.12-.91-5.74-.44s-2.93,1.16-3.92,2.06h-.27c-.18,0-.34-.07-.47-.2-.14-.09-.2-.2-.2-.34v-.2c.04-.14.08-.95.1-2.43.02-1.49.04-3.41.07-5.78.02-2.37.04-5.04.07-8.04.02-3,.06-6.05.1-9.16.04-7.25.11-15.47.2-24.66l-3.11-2.09v-.95h5.81c1.49,0,2.88-.01,4.19-.03,1.31-.02,2.09-.03,2.37-.03.68,0,1.23.19,1.66.57.43.38.62.96.57,1.72v1.55c0,.95-.01,2.22-.03,3.82-.02,1.6-.05,3.46-.07,5.57-.02,2.12-.06,4.35-.1,6.69Zm-.34,31.35c1.44.86,2.68,1.26,3.72,1.22,1.04-.04,1.94-.42,2.7-1.12.77-.7,1.4-1.68,1.89-2.94.5-1.26.88-2.66,1.15-4.19.27-1.53.46-3.16.57-4.9.11-1.73.17-3.43.17-5.1,0-1.76-.07-3.54-.2-5.34-.14-1.8-.37-3.46-.71-4.97-.34-1.51-.78-2.79-1.32-3.85-.54-1.06-1.24-1.7-2.09-1.93-.45-.13-.98-.1-1.59.1-.61.2-1.19.52-1.76.95-.56.43-1.05.95-1.45,1.55-.41.61-.65,1.27-.74,1.99-.05,2.88-.08,5.8-.1,8.75-.02,2.95-.06,5.72-.1,8.31-.05,2.59-.08,4.89-.1,6.89-.02,2.01-.03,3.53-.03,4.56Z" style="stroke-width:0px;"/><path d="m139.64,56.49h-18.24v-.95l3.58-2.16V6.89l-3.11-2.09v-.95h3.11c.9,0,1.86-.01,2.87-.03,1.01-.02,1.95-.03,2.8-.03h3.51c.72.05,1.29.26,1.72.64.43.38.62.96.57,1.72v47.23l3.18,2.16v.95Z" style="stroke-width:0px;"/><path d="m160.59,55.55v1.01c-2.97-.05-5.98-.07-9.02-.07h-9.22v-.95l3.58-2.16V21.08l-3.11-2.03v-1.01h12.37c.68,0,1.23.19,1.66.57.43.38.62.96.57,1.72v16.76c0,4.78.02,10.2.07,16.29l3.11,2.16Zm-5.3-54.06c-1.01-.99-2.24-1.49-3.68-1.49s-2.66.5-3.65,1.49c-.99.99-1.49,2.21-1.49,3.65s.5,2.67,1.49,3.68c.99,1.01,2.21,1.52,3.65,1.52s2.67-.51,3.68-1.52,1.52-2.24,1.52-3.68-.51-2.66-1.52-3.65Z" style="stroke-width:0px;"/><path d="m224.18,55.55v1.01h-18.18l-.07-1.01,3.58-2.16v-26.22c0-.68-.01-1.2-.03-1.59-.02-.38-.06-.65-.1-.81-.05-.16-.11-.35-.2-.57-.27-.81-.93-1.37-1.97-1.69-1.04-.31-2.12-.37-3.23-.17-1.11.2-2.12.69-3.03,1.45-.91.77-1.38,1.87-1.43,3.31.04.68.08,1.58.1,2.7.02,1.13.03,2.68.03,4.66v18.92l3.18,2.16v1.01h-18.18l-.07-1.01,3.58-2.16v-4.02c0-1.73.01-3.64.03-5.71.02-2.07.02-4.2,0-6.39-.02-2.18-.05-4.2-.07-6.05-.02-1.85-.06-3.41-.1-4.7-.05-1.28-.11-2.06-.2-2.33-.27-.77-.86-1.32-1.76-1.66-.9-.34-1.87-.44-2.91-.3-1.04.14-2.02.51-2.94,1.12-.92.61-1.54,1.45-1.86,2.53,0,2.57.01,5.42.03,8.55.02,3.13.03,6.12.03,8.95v10l3.18,2.16v1.01h-18.24l-.07-1.01,3.58-2.16V20.95l-3.11-2.03v-1.01h12.37c1.53,0,2.3.77,2.3,2.3v.74c0,.14-.01.29-.03.47-.02.18-.03.42-.03.71v1.45c1.26-1.94,2.86-3.27,4.82-3.99,1.95-.72,4.08-1.08,6.37-1.08,2.42,0,4.47.43,6.13,1.28,1.66.86,2.81,2.48,3.44,4.87.18-.68.57-1.39,1.18-2.13s1.4-1.41,2.36-1.99c.97-.58,2.13-1.07,3.48-1.45,1.35-.38,2.9-.57,4.66-.57,2.52,0,4.62.44,6.28,1.32s2.79,2.53,3.38,4.97c.09.36.17.75.24,1.18.07.43.12,1.03.17,1.79.04.77.07,1.76.07,2.97s.01,2.82.03,4.8c.02,1.98.03,4.43.03,7.33v10.51l3.18,2.16Z" style="stroke-width:0px;"/><path d="m259.38,29.46c0,.18-.06.41-.17.68-.11.27-.28.45-.51.54-.32.09-.91.36-1.79.81-.88.45-1.93,1-3.14,1.66-1.22.65-2.53,1.36-3.95,2.13-1.42.77-2.8,1.5-4.16,2.2-1.35.7-2.61,1.31-3.78,1.82-1.17.52-2.12.87-2.84,1.05.5,2.88,1.49,5.01,2.97,6.39,1.49,1.37,3.12,2.15,4.9,2.33,1.78.18,3.57-.17,5.37-1.05,1.8-.88,3.27-2.11,4.39-3.68l.81.34c-.95,3.2-2.38,5.73-4.29,7.6-1.92,1.87-4.03,3.12-6.35,3.75-2.32.63-4.7.69-7.13.17s-4.65-1.59-6.66-3.21c-2.01-1.62-3.65-3.75-4.93-6.39-1.28-2.64-1.93-5.73-1.93-9.29,0-3.78.57-6.96,1.72-9.53,1.15-2.57,2.67-4.64,4.56-6.22,2.43-2.07,5.16-3.36,8.18-3.85,3.02-.5,5.88-.34,8.58.47,2.7.81,5.01,2.2,6.93,4.16,1.91,1.96,2.98,4.34,3.21,7.13Zm-7.97-6.69c.27-.95.15-1.73-.37-2.37-.52-.63-1.23-1.05-2.13-1.25-.9-.2-1.89-.16-2.97.14-1.08.29-2.03.89-2.84,1.79-1.17,1.31-2.2,3.21-3.07,5.71-.88,2.5-1.32,5.67-1.32,9.49,0,.41.01.81.03,1.22.02.41.06.79.1,1.15,2.12-2.16,3.93-4.08,5.44-5.74,1.51-1.67,2.76-3.14,3.75-4.43.99-1.28,1.75-2.39,2.26-3.31.52-.92.89-1.72,1.11-2.4Z" style="stroke-width:0px;"/><path d="m316.95,56.56h-3.11c-.95,0-2.06-.01-3.33-.03-1.28-.02-2.63-.03-4.06-.03s-2.86.01-4.13.03c-1.28.02-2.39.03-3.33.03h-3.11v-1.15l4.93-2.03v-25.61c0-6.31-.02-10.05-.07-11.22,0-.63-.21-.97-.64-1.01-.43-.04-.73.23-.91.81-.09.27-.3,1.06-.64,2.37-.34,1.31-.75,2.93-1.25,4.87-.5,1.94-1.06,4.09-1.69,6.45-.63,2.37-1.28,4.76-1.96,7.2-1.53,5.72-3.24,12.14-5.14,19.26h-1.08l-19.33-43.04c-.36-.63-.59-.92-.68-.88-.09.05-.14.32-.14.81l-.13,11.62c.09,4.91.31,9.03.68,12.37.36,3.33.8,6.07,1.32,8.21.52,2.14,1.12,3.8,1.79,4.97.68,1.17,1.41,2.06,2.2,2.67.79.61,1.59,1.05,2.4,1.32s1.62.56,2.43.88v1.15c-.18,0-.62-.01-1.32-.03-.7-.02-1.57-.03-2.6-.03h-10.54c-.63,0-1.05.01-1.25.03-.2.02-.27.03-.2.03s.08,0,.03,0v-1.01c.54-.54,1-1.27,1.39-2.2.38-.92.7-2.14.95-3.65.25-1.51.45-3.38.61-5.61.16-2.23.29-4.92.41-8.07.11-3.15.24-6.85.37-11.08.13-4.23.29-9.1.47-14.6-.27-.14-.63-.3-1.08-.51-.45-.2-.91-.39-1.39-.57-.47-.18-.88-.35-1.22-.51-.34-.16-.51-.26-.51-.3-.05-.04-.06-.12-.03-.24.02-.11.03-.21.03-.3v-.41l17.57-.07,11.35,26.69c.36.36.74.62,1.15.78.41.16.86-.08,1.35-.71,1.13-4.14,2.08-7.86,2.87-11.15.79-3.29,1.44-6.08,1.96-8.38.52-2.3.9-4.06,1.15-5.3.25-1.24.37-1.88.37-1.93h17.1v.95l-4.66,2.16v42.84l4.66,2.09v1.08Z" style="stroke-width:0px;"/><path d="m352.7,29.46c0,.18-.06.41-.17.68-.11.27-.28.45-.51.54-.32.09-.91.36-1.79.81-.88.45-1.93,1-3.14,1.66-1.22.65-2.53,1.36-3.95,2.13-1.42.77-2.8,1.5-4.16,2.2-1.35.7-2.61,1.31-3.78,1.82-1.17.52-2.12.87-2.84,1.05.5,2.88,1.49,5.01,2.97,6.39,1.49,1.37,3.12,2.15,4.9,2.33,1.78.18,3.57-.17,5.37-1.05,1.8-.88,3.27-2.11,4.39-3.68l.81.34c-.95,3.2-2.38,5.73-4.29,7.6-1.92,1.87-4.03,3.12-6.35,3.75-2.32.63-4.7.69-7.13.17s-4.65-1.59-6.66-3.21c-2.01-1.62-3.65-3.75-4.93-6.39-1.28-2.64-1.93-5.73-1.93-9.29,0-3.78.57-6.96,1.72-9.53,1.15-2.57,2.67-4.64,4.56-6.22,2.43-2.07,5.16-3.36,8.18-3.85,3.02-.5,5.88-.34,8.58.47,2.7.81,5.01,2.2,6.93,4.16,1.91,1.96,2.98,4.34,3.21,7.13Zm-7.97-6.69c.27-.95.15-1.73-.37-2.37-.52-.63-1.23-1.05-2.13-1.25-.9-.2-1.89-.16-2.97.14-1.08.29-2.03.89-2.84,1.79-1.17,1.31-2.2,3.21-3.07,5.71-.88,2.5-1.32,5.67-1.32,9.49,0,.41.01.81.03,1.22.02.41.06.79.1,1.15,2.12-2.16,3.93-4.08,5.44-5.74,1.51-1.67,2.76-3.14,3.75-4.43.99-1.28,1.75-2.39,2.26-3.31.52-.92.89-1.72,1.11-2.4Z" style="stroke-width:0px;"/><path d="m393.79,55.55v1.01h-2.3c-.77,0-1.72-.01-2.86-.03-1.14-.02-2.43-.03-3.86-.03s-2.79.01-3.93.03c-1.14.02-2.1.03-2.86.03h-2.37l-.07-1.01,3.58-2.16v-4.02c0-1.73.01-3.64.03-5.71.02-2.07.02-4.2,0-6.39-.02-2.18-.05-4.2-.07-6.05-.02-1.85-.06-3.41-.1-4.7-.05-1.28-.11-2.06-.2-2.33-.27-.77-.87-1.32-1.79-1.66-.92-.34-1.92-.44-2.97-.3-1.06.14-2.04.52-2.94,1.15-.9.63-1.49,1.51-1.76,2.64v27.37l3.18,2.16v1.01h-2.3c-.77,0-1.71-.01-2.84-.03-1.13-.02-2.41-.03-3.85-.03s-2.8.01-3.95.03c-1.15.02-2.11.03-2.87.03h-2.37l-.07-1.01,3.58-2.16V6.89l-3.11-2.09v-.95h3.11c.9,0,1.86-.01,2.87-.03,1.01-.02,1.95-.03,2.8-.03h3.51c.72.05,1.29.26,1.72.64.43.38.62.96.57,1.72l-.02,17.5c.67-1.08,1.61-2.02,2.8-2.8,1.19-.79,2.51-1.4,3.94-1.82,1.44-.43,2.91-.64,4.42-.64s2.91.23,4.22.68c1.3.45,2.44,1.15,3.41,2.09.97.95,1.63,2.16,1.99,3.65.09.5.17.97.24,1.42.07.45.12,1.06.17,1.82.04.77.08,1.75.1,2.94.02,1.19.03,2.77.03,4.73v17.67l3.18,2.16Z" style="stroke-width:0px;"/></svg>